<svg width="15" height="15" viewBox="0 0 15 15" fill="none" xmlns="http://www.w3.org/2000/svg">
<path d="M14.4911 8.09176C14.7882 7.64597 14.7882 7.06643 14.4911 6.63549L13.971 5.86278C13.9264 5.77362 13.9115 5.68446 13.9115 5.58044L13.971 4.64426C14.0007 4.10931 13.7183 3.61893 13.2428 3.38117L12.4107 2.96509C12.3215 2.92051 12.2621 2.86107 12.2175 2.77191L11.8014 1.93976C11.5636 1.46424 11.0584 1.1819 10.5383 1.21162L9.60214 1.27106C9.51298 1.27106 9.40896 1.2562 9.33466 1.19676L8.56195 0.691527C8.11615 0.394328 7.55147 0.394328 7.10567 0.691527L6.33296 1.21162C6.22894 1.2562 6.13978 1.27106 6.03576 1.27106L5.09959 1.21162C4.56463 1.1819 4.07425 1.46424 3.83649 1.93976L3.42042 2.77191C3.37584 2.86107 3.3164 2.92051 3.22724 2.96509L2.39508 3.38117C1.91956 3.61893 1.63723 4.12417 1.66695 4.64426L1.72639 5.58044C1.72639 5.6696 1.71153 5.77362 1.65209 5.84792L1.14685 6.62063C0.849651 7.06643 0.849651 7.64597 1.14685 8.0769L1.66695 8.84962C1.71153 8.95364 1.72639 9.0428 1.72639 9.14682L1.66695 10.083C1.63723 10.6179 1.91956 11.1083 2.39508 11.3461L3.22724 11.7622C3.3164 11.8067 3.37584 11.881 3.42042 11.9553L3.83649 12.7875C4.07425 13.263 4.57949 13.5454 5.09959 13.5156L6.03576 13.4562C6.12492 13.4562 6.22894 13.4711 6.30324 13.5305L7.07595 14.0357C7.29885 14.1843 7.55147 14.2586 7.80409 14.2586C8.05671 14.2586 8.30933 14.1843 8.53223 14.0357L9.30494 13.5156C9.37924 13.4711 9.48326 13.4413 9.57242 13.4413L10.5086 13.5008C11.0436 13.5305 11.5339 13.2482 11.7717 12.7726L12.1878 11.9405C12.2323 11.8513 12.2918 11.7919 12.3809 11.7473L13.2131 11.3312C13.6886 11.0935 13.971 10.5882 13.9412 10.0681L13.9115 9.14682C13.9115 9.05766 13.9264 8.95364 13.9858 8.87934L14.4911 8.09176ZM13.7481 7.60139L13.2428 8.3741C13.0794 8.61186 13.0051 8.8942 13.0199 9.17654L13.0794 10.1127C13.0942 10.291 12.9902 10.4545 12.8416 10.5288L12.0094 10.9449C11.7568 11.0786 11.5488 11.2866 11.415 11.5393L10.999 12.3714C10.9247 12.5349 10.7612 12.624 10.5829 12.6092L9.64672 12.5646C9.36438 12.5497 9.08204 12.624 8.84428 12.7875L8.07157 13.2927C7.92297 13.3819 7.72979 13.3819 7.59605 13.2927L6.82334 12.7875C6.60044 12.6389 6.34782 12.5646 6.0952 12.5646C6.06548 12.5646 6.05062 12.5646 6.0209 12.5646L5.08473 12.624C4.90641 12.6389 4.74295 12.5349 4.66865 12.3863L4.25257 11.5541C4.11883 11.3015 3.91079 11.0935 3.65817 10.9597L2.82602 10.5436C2.66256 10.4694 2.5734 10.3059 2.58826 10.1276L2.6477 9.1914C2.66256 8.90906 2.58826 8.62672 2.4248 8.38896L1.91956 7.61625C1.8304 7.46765 1.8304 7.27447 1.91956 7.14073L2.4248 6.36801C2.58826 6.13026 2.66256 5.84792 2.6477 5.56558L2.58826 4.6294C2.5734 4.45108 2.67742 4.28763 2.82602 4.21333L3.65817 3.79725C3.91079 3.66351 4.11883 3.45547 4.25257 3.20285L4.66865 2.3707C4.74295 2.20724 4.90641 2.11808 5.08473 2.13294L6.0209 2.19238C6.30324 2.20724 6.58558 2.13294 6.82334 1.96948L7.59605 1.46424C7.74465 1.37508 7.93783 1.37508 8.07157 1.46424L8.84428 1.96948C9.08204 2.13294 9.36438 2.20724 9.64672 2.19238L10.5829 2.13294C10.7612 2.11808 10.9247 2.2221 10.999 2.3707L11.415 3.20285C11.5488 3.45547 11.7568 3.66351 12.0094 3.79725L12.8416 4.21333C13.0051 4.28763 13.0942 4.45108 13.0794 4.6294L13.0199 5.53586C13.0051 5.8182 13.0794 6.10054 13.2428 6.33829L13.7481 7.11101C13.8521 7.27447 13.8521 7.45279 13.7481 7.60139Z" fill="#2B2B2B"/>
<path d="M6.31809 7.09614C7.10567 7.09614 7.7595 6.44231 7.7595 5.65473C7.7595 4.86715 7.10567 4.21332 6.31809 4.21332C5.53051 4.21332 4.87668 4.86715 4.87668 5.65473C4.87668 6.47202 5.51565 7.09614 6.31809 7.09614ZM6.31809 5.00089C6.68959 5.00089 6.98679 5.29809 6.98679 5.66959C6.98679 6.04109 6.68959 6.32343 6.31809 6.32343C5.94659 6.32343 5.64939 6.02623 5.64939 5.65473C5.64939 5.28323 5.94659 5.00089 6.31809 5.00089Z" fill="#2B2B2B"/>
<path d="M9.3198 7.6311C8.53222 7.6311 7.87839 8.28494 7.87839 9.07252C7.87839 9.86009 8.53222 10.5139 9.3198 10.5139C10.1074 10.5139 10.7612 9.86009 10.7612 9.07252C10.7612 8.25522 10.1222 7.6311 9.3198 7.6311ZM9.3198 9.72635C8.9483 9.72635 8.6511 9.42915 8.6511 9.05766C8.6511 8.68616 8.9483 8.38896 9.3198 8.38896C9.6913 8.38896 9.98849 8.68616 9.98849 9.05766C9.98849 9.42915 9.6913 9.72635 9.3198 9.72635Z" fill="#2B2B2B"/>
<path d="M10.5829 4.59968C10.4194 4.43622 10.1817 4.43622 10.0331 4.59968L5.055 9.56289C4.89154 9.72635 4.89154 9.9641 5.055 10.1127C5.1293 10.187 5.23332 10.2316 5.32248 10.2316C5.41164 10.2316 5.51566 10.187 5.58995 10.1127L10.5532 5.14949C10.7166 5.00089 10.7166 4.76313 10.5829 4.59968Z" fill="#2B2B2B"/>
</svg>
